<mxfile host="app.diagrams.net" modified="2024-07-01T14:26:15.751Z" agent="Mozilla/5.0 (Windows NT 10.0; Win64; x64) AppleWebKit/537.36 (KHTML, like Gecko) Chrome/126.0.0.0 Safari/537.36" etag="X9_nWO8ojfWbqJMv7ufv" version="24.6.4" type="google">
  <diagram id="6a731a19-8d31-9384-78a2-239565b7b9f0" name="Page-1">
    <mxGraphModel grid="1" page="1" gridSize="10" guides="1" tooltips="1" connect="1" arrows="1" fold="1" pageScale="1" pageWidth="1169" pageHeight="827" background="none" math="0" shadow="0">
      <root>
        <mxCell id="0" />
        <mxCell id="1" parent="0" />
        <mxCell id="2" value="start" style="shape=mxgraph.flowchart.terminator;strokeWidth=2;gradientColor=none;gradientDirection=north;fontStyle=0;html=1;" vertex="1" parent="1">
          <mxGeometry x="40" y="65" width="120" height="30" as="geometry" />
        </mxCell>
        <mxCell id="3" value="QR-Code Druck" style="shape=mxgraph.flowchart.data;strokeWidth=2;gradientColor=none;gradientDirection=north;fontStyle=0;html=1;" vertex="1" parent="1">
          <mxGeometry x="250" y="40" width="159" height="80" as="geometry" />
        </mxCell>
        <mxCell id="biZYYDh9NMslOkPzkoju-57" style="edgeStyle=orthogonalEdgeStyle;rounded=0;orthogonalLoop=1;jettySize=auto;html=1;exitX=0.905;exitY=0.5;exitDx=0;exitDy=0;exitPerimeter=0;entryX=0;entryY=0.5;entryDx=0;entryDy=0;" edge="1" parent="1" source="5" target="biZYYDh9NMslOkPzkoju-63">
          <mxGeometry relative="1" as="geometry">
            <mxPoint x="750" y="80" as="targetPoint" />
          </mxGeometry>
        </mxCell>
        <mxCell id="5" value="Lasercutter" style="shape=mxgraph.flowchart.data;strokeWidth=2;gradientColor=none;gradientDirection=north;fontStyle=0;html=1;" vertex="1" parent="1">
          <mxGeometry x="510" y="40" width="159" height="80" as="geometry" />
        </mxCell>
        <mxCell id="biZYYDh9NMslOkPzkoju-58" style="edgeStyle=orthogonalEdgeStyle;rounded=0;orthogonalLoop=1;jettySize=auto;html=1;exitX=1;exitY=0.5;exitDx=0;exitDy=0;exitPerimeter=0;entryX=0.095;entryY=0.5;entryDx=0;entryDy=0;entryPerimeter=0;" edge="1" parent="1" source="2" target="3">
          <mxGeometry relative="1" as="geometry" />
        </mxCell>
        <mxCell id="biZYYDh9NMslOkPzkoju-62" style="edgeStyle=orthogonalEdgeStyle;rounded=0;orthogonalLoop=1;jettySize=auto;html=1;exitX=0.905;exitY=0.5;exitDx=0;exitDy=0;exitPerimeter=0;entryX=0.095;entryY=0.5;entryDx=0;entryDy=0;entryPerimeter=0;" edge="1" parent="1" source="3" target="5">
          <mxGeometry relative="1" as="geometry" />
        </mxCell>
        <mxCell id="biZYYDh9NMslOkPzkoju-63" value="ausgeschnittene&lt;div&gt;QR-Codes&amp;nbsp;&lt;/div&gt;" style="shape=parallelogram;html=1;strokeWidth=2;perimeter=parallelogramPerimeter;whiteSpace=wrap;rounded=1;arcSize=12;size=0.23;" vertex="1" parent="1">
          <mxGeometry x="759" y="40" width="160" height="80" as="geometry" />
        </mxCell>
        <mxCell id="biZYYDh9NMslOkPzkoju-64" value="Tubes im Rack&amp;nbsp;&lt;div&gt;auf der Sliding Rail&lt;/div&gt;" style="shape=mxgraph.flowchart.data;strokeWidth=2;gradientColor=none;gradientDirection=north;fontStyle=0;html=1;" vertex="1" parent="1">
          <mxGeometry x="29" y="200" width="159" height="80" as="geometry" />
        </mxCell>
        <mxCell id="biZYYDh9NMslOkPzkoju-65" value="Zentrifuge" style="shape=mxgraph.flowchart.data;strokeWidth=2;gradientColor=none;gradientDirection=north;fontStyle=0;html=1;" vertex="1" parent="1">
          <mxGeometry x="280" y="200" width="159" height="80" as="geometry" />
        </mxCell>
        <mxCell id="biZYYDh9NMslOkPzkoju-66" value="Prit Stift" style="shape=mxgraph.flowchart.data;strokeWidth=2;gradientColor=none;gradientDirection=north;fontStyle=0;html=1;" vertex="1" parent="1">
          <mxGeometry x="1010" y="40" width="160" height="80" as="geometry" />
        </mxCell>
        <mxCell id="biZYYDh9NMslOkPzkoju-68" value="" style="html=1;verticalLabelPosition=bottom;align=center;labelBackgroundColor=#ffffff;verticalAlign=top;strokeWidth=2;strokeColor=#0080F0;shadow=0;dashed=0;shape=mxgraph.ios7.icons.privacy;" vertex="1" parent="1">
          <mxGeometry x="439" y="28.5" width="30" height="40" as="geometry" />
        </mxCell>
        <mxCell id="biZYYDh9NMslOkPzkoju-79" value="" style="sketch=0;points=[[0,0,0],[0.25,0,0],[0.5,0,0],[0.75,0,0],[1,0,0],[0,1,0],[0.25,1,0],[0.5,1,0],[0.75,1,0],[1,1,0],[0,0.25,0],[0,0.5,0],[0,0.75,0],[1,0.25,0],[1,0.5,0],[1,0.75,0]];outlineConnect=0;fontColor=#232F3E;fillColor=#DD344C;strokeColor=#ffffff;dashed=0;verticalLabelPosition=bottom;verticalAlign=top;align=center;html=1;fontSize=12;fontStyle=0;aspect=fixed;shape=mxgraph.aws4.resourceIcon;resIcon=mxgraph.aws4.robomaker;" vertex="1" parent="1">
          <mxGeometry x="577.11" y="445" width="50" height="50" as="geometry" />
        </mxCell>
        <mxCell id="biZYYDh9NMslOkPzkoju-80" value="" style="sketch=0;points=[[0,0,0],[0.25,0,0],[0.5,0,0],[0.75,0,0],[1,0,0],[0,1,0],[0.25,1,0],[0.5,1,0],[0.75,1,0],[1,1,0],[0,0.25,0],[0,0.5,0],[0,0.75,0],[1,0.25,0],[1,0.5,0],[1,0.75,0]];outlineConnect=0;fontColor=#232F3E;fillColor=#DD344C;strokeColor=#ffffff;dashed=0;verticalLabelPosition=bottom;verticalAlign=top;align=center;html=1;fontSize=12;fontStyle=0;aspect=fixed;shape=mxgraph.aws4.resourceIcon;resIcon=mxgraph.aws4.robotics;" vertex="1" parent="1">
          <mxGeometry x="1253" y="250" width="50" height="50" as="geometry" />
        </mxCell>
        <mxCell id="biZYYDh9NMslOkPzkoju-82" value="" style="sketch=0;outlineConnect=0;fontColor=#232F3E;gradientColor=none;fillColor=#DD344C;strokeColor=none;dashed=0;verticalLabelPosition=bottom;verticalAlign=top;align=center;html=1;fontSize=12;fontStyle=0;aspect=fixed;pointerEvents=1;shape=mxgraph.aws4.waf_bot;" vertex="1" parent="1">
          <mxGeometry x="940" y="15.5" width="53" height="53" as="geometry" />
        </mxCell>
        <mxCell id="biZYYDh9NMslOkPzkoju-97" style="edgeStyle=orthogonalEdgeStyle;rounded=0;orthogonalLoop=1;jettySize=auto;html=1;exitX=1;exitY=0.5;exitDx=0;exitDy=0;entryX=0.095;entryY=0.5;entryDx=0;entryDy=0;entryPerimeter=0;" edge="1" parent="1" source="biZYYDh9NMslOkPzkoju-63" target="biZYYDh9NMslOkPzkoju-66">
          <mxGeometry relative="1" as="geometry" />
        </mxCell>
        <mxCell id="biZYYDh9NMslOkPzkoju-101" value="" style="endArrow=classic;html=1;rounded=0;" edge="1" parent="1">
          <mxGeometry width="50" height="50" relative="1" as="geometry">
            <mxPoint x="1238" y="160" as="sourcePoint" />
            <mxPoint x="1150" y="160" as="targetPoint" />
          </mxGeometry>
        </mxCell>
        <mxCell id="biZYYDh9NMslOkPzkoju-102" value="" style="endArrow=none;html=1;rounded=0;" edge="1" parent="1">
          <mxGeometry width="50" height="50" relative="1" as="geometry">
            <mxPoint x="-30" y="160" as="sourcePoint" />
            <mxPoint x="40" y="160" as="targetPoint" />
          </mxGeometry>
        </mxCell>
        <mxCell id="biZYYDh9NMslOkPzkoju-103" value="" style="endArrow=none;html=1;rounded=0;" edge="1" parent="1">
          <mxGeometry width="50" height="50" relative="1" as="geometry">
            <mxPoint x="-30" y="240" as="sourcePoint" />
            <mxPoint x="-30" y="160" as="targetPoint" />
          </mxGeometry>
        </mxCell>
        <mxCell id="biZYYDh9NMslOkPzkoju-105" value="" style="endArrow=classic;html=1;rounded=0;" edge="1" parent="1">
          <mxGeometry width="50" height="50" relative="1" as="geometry">
            <mxPoint x="-30" y="240" as="sourcePoint" />
            <mxPoint x="40" y="240" as="targetPoint" />
          </mxGeometry>
        </mxCell>
        <mxCell id="biZYYDh9NMslOkPzkoju-106" value="" style="sketch=0;outlineConnect=0;fontColor=#232F3E;gradientColor=none;fillColor=#DD344C;strokeColor=none;dashed=0;verticalLabelPosition=bottom;verticalAlign=top;align=center;html=1;fontSize=12;fontStyle=0;aspect=fixed;pointerEvents=1;shape=mxgraph.aws4.waf_bot;" vertex="1" parent="1">
          <mxGeometry x="1250" y="80" width="53" height="53" as="geometry" />
        </mxCell>
        <mxCell id="biZYYDh9NMslOkPzkoju-107" style="edgeStyle=orthogonalEdgeStyle;rounded=0;orthogonalLoop=1;jettySize=auto;html=1;exitX=0.905;exitY=0.5;exitDx=0;exitDy=0;exitPerimeter=0;entryX=0.095;entryY=0.5;entryDx=0;entryDy=0;entryPerimeter=0;" edge="1" parent="1" source="biZYYDh9NMslOkPzkoju-64" target="biZYYDh9NMslOkPzkoju-65">
          <mxGeometry relative="1" as="geometry" />
        </mxCell>
        <mxCell id="biZYYDh9NMslOkPzkoju-109" value="" style="html=1;verticalLabelPosition=bottom;align=center;labelBackgroundColor=#ffffff;verticalAlign=top;strokeWidth=2;strokeColor=#0080F0;shadow=0;dashed=0;shape=mxgraph.ios7.icons.forward;" vertex="1" parent="1">
          <mxGeometry x="230" y="210" width="30" height="16.8" as="geometry" />
        </mxCell>
        <mxCell id="biZYYDh9NMslOkPzkoju-110" value="" style="html=1;dashed=0;aspect=fixed;verticalLabelPosition=bottom;verticalAlign=top;align=center;shape=mxgraph.gmdl.office;strokeColor=none;fillColor=#737373;shadow=0;sketch=0;" vertex="1" parent="1">
          <mxGeometry x="690" y="32" width="38" height="38" as="geometry" />
        </mxCell>
        <mxCell id="biZYYDh9NMslOkPzkoju-111" value="Zentrifuge starten" style="shape=mxgraph.flowchart.data;strokeWidth=2;gradientColor=none;gradientDirection=north;fontStyle=0;html=1;" vertex="1" parent="1">
          <mxGeometry x="770" y="200" width="159" height="80" as="geometry" />
        </mxCell>
        <mxCell id="biZYYDh9NMslOkPzkoju-112" value="Zentrifuge Ã¶ffnen&lt;div&gt;&amp;amp; auf Nullposition&lt;/div&gt;&lt;div&gt;stellen&lt;/div&gt;" style="shape=mxgraph.flowchart.data;strokeWidth=2;gradientColor=none;gradientDirection=north;fontStyle=0;html=1;" vertex="1" parent="1">
          <mxGeometry x="999.5" y="200" width="159" height="80" as="geometry" />
        </mxCell>
        <mxCell id="biZYYDh9NMslOkPzkoju-113" value="Tubes in der Zentrifuge" style="shape=mxgraph.flowchart.data;strokeWidth=2;gradientColor=none;gradientDirection=north;fontStyle=0;html=1;" vertex="1" parent="1">
          <mxGeometry x="530" y="200" width="159" height="80" as="geometry" />
        </mxCell>
        <mxCell id="biZYYDh9NMslOkPzkoju-114" style="edgeStyle=orthogonalEdgeStyle;rounded=0;orthogonalLoop=1;jettySize=auto;html=1;exitX=0.905;exitY=0.5;exitDx=0;exitDy=0;exitPerimeter=0;entryX=0.095;entryY=0.5;entryDx=0;entryDy=0;entryPerimeter=0;" edge="1" parent="1" source="biZYYDh9NMslOkPzkoju-65" target="biZYYDh9NMslOkPzkoju-113">
          <mxGeometry relative="1" as="geometry" />
        </mxCell>
        <mxCell id="biZYYDh9NMslOkPzkoju-115" value="" style="html=1;verticalLabelPosition=bottom;align=center;labelBackgroundColor=#ffffff;verticalAlign=top;strokeWidth=2;strokeColor=#0080F0;shadow=0;dashed=0;shape=mxgraph.ios7.icons.privacy;" vertex="1" parent="1">
          <mxGeometry x="490" y="186.8" width="30" height="40" as="geometry" />
        </mxCell>
        <mxCell id="biZYYDh9NMslOkPzkoju-116" style="edgeStyle=orthogonalEdgeStyle;rounded=0;orthogonalLoop=1;jettySize=auto;html=1;exitX=0.905;exitY=0.5;exitDx=0;exitDy=0;exitPerimeter=0;entryX=0.095;entryY=0.5;entryDx=0;entryDy=0;entryPerimeter=0;" edge="1" parent="1" source="biZYYDh9NMslOkPzkoju-113" target="biZYYDh9NMslOkPzkoju-111">
          <mxGeometry relative="1" as="geometry" />
        </mxCell>
        <mxCell id="biZYYDh9NMslOkPzkoju-117" style="edgeStyle=orthogonalEdgeStyle;rounded=0;orthogonalLoop=1;jettySize=auto;html=1;exitX=0.905;exitY=0.5;exitDx=0;exitDy=0;exitPerimeter=0;entryX=0.095;entryY=0.5;entryDx=0;entryDy=0;entryPerimeter=0;" edge="1" parent="1" source="biZYYDh9NMslOkPzkoju-111" target="biZYYDh9NMslOkPzkoju-112">
          <mxGeometry relative="1" as="geometry" />
        </mxCell>
        <mxCell id="biZYYDh9NMslOkPzkoju-118" value="" style="html=1;verticalLabelPosition=bottom;align=center;labelBackgroundColor=#ffffff;verticalAlign=top;strokeWidth=2;strokeColor=#0080F0;shadow=0;dashed=0;shape=mxgraph.ios7.icons.privacy;" vertex="1" parent="1">
          <mxGeometry x="729" y="186.8" width="30" height="40" as="geometry" />
        </mxCell>
        <mxCell id="biZYYDh9NMslOkPzkoju-119" value="" style="html=1;verticalLabelPosition=bottom;align=center;labelBackgroundColor=#ffffff;verticalAlign=top;strokeWidth=2;strokeColor=#0080F0;shadow=0;dashed=0;shape=mxgraph.ios7.icons.privacy;" vertex="1" parent="1">
          <mxGeometry x="960" y="186.8" width="30" height="40" as="geometry" />
        </mxCell>
        <mxCell id="biZYYDh9NMslOkPzkoju-120" value="" style="endArrow=none;html=1;rounded=0;" edge="1" parent="1">
          <mxGeometry width="50" height="50" relative="1" as="geometry">
            <mxPoint x="1158.5" y="78.66999999999999" as="sourcePoint" />
            <mxPoint x="1240" y="80" as="targetPoint" />
          </mxGeometry>
        </mxCell>
        <mxCell id="biZYYDh9NMslOkPzkoju-121" value="" style="endArrow=none;html=1;rounded=0;" edge="1" parent="1">
          <mxGeometry width="50" height="50" relative="1" as="geometry">
            <mxPoint x="1240" y="160" as="sourcePoint" />
            <mxPoint x="1240" y="80" as="targetPoint" />
          </mxGeometry>
        </mxCell>
        <mxCell id="biZYYDh9NMslOkPzkoju-122" value="" style="endArrow=classic;html=1;rounded=0;" edge="1" parent="1">
          <mxGeometry width="50" height="50" relative="1" as="geometry">
            <mxPoint x="1240" y="320" as="sourcePoint" />
            <mxPoint x="1130" y="320.33000000000004" as="targetPoint" />
          </mxGeometry>
        </mxCell>
        <mxCell id="biZYYDh9NMslOkPzkoju-123" value="" style="endArrow=none;html=1;rounded=0;" edge="1" parent="1">
          <mxGeometry width="50" height="50" relative="1" as="geometry">
            <mxPoint x="1138.5" y="240" as="sourcePoint" />
            <mxPoint x="1240" y="240" as="targetPoint" />
          </mxGeometry>
        </mxCell>
        <mxCell id="biZYYDh9NMslOkPzkoju-124" value="" style="endArrow=none;html=1;rounded=0;" edge="1" parent="1">
          <mxGeometry width="50" height="50" relative="1" as="geometry">
            <mxPoint x="1240" y="321" as="sourcePoint" />
            <mxPoint x="1240" y="240" as="targetPoint" />
          </mxGeometry>
        </mxCell>
        <mxCell id="biZYYDh9NMslOkPzkoju-125" value="" style="endArrow=none;html=1;rounded=0;" edge="1" parent="1">
          <mxGeometry width="50" height="50" relative="1" as="geometry">
            <mxPoint x="-30" y="320" as="sourcePoint" />
            <mxPoint x="40" y="320" as="targetPoint" />
          </mxGeometry>
        </mxCell>
        <mxCell id="biZYYDh9NMslOkPzkoju-126" value="" style="endArrow=none;html=1;rounded=0;" edge="1" parent="1">
          <mxGeometry width="50" height="50" relative="1" as="geometry">
            <mxPoint x="-30" y="400" as="sourcePoint" />
            <mxPoint x="-30" y="320" as="targetPoint" />
          </mxGeometry>
        </mxCell>
        <mxCell id="biZYYDh9NMslOkPzkoju-127" value="" style="endArrow=classic;html=1;rounded=0;" edge="1" parent="1">
          <mxGeometry width="50" height="50" relative="1" as="geometry">
            <mxPoint x="-30" y="400" as="sourcePoint" />
            <mxPoint x="40" y="400" as="targetPoint" />
          </mxGeometry>
        </mxCell>
        <mxCell id="biZYYDh9NMslOkPzkoju-128" value="DeckelÃ¶ffnung" style="shape=mxgraph.flowchart.data;strokeWidth=2;gradientColor=none;gradientDirection=north;fontStyle=0;html=1;" vertex="1" parent="1">
          <mxGeometry x="486.11" y="362" width="159" height="80" as="geometry" />
        </mxCell>
        <mxCell id="biZYYDh9NMslOkPzkoju-129" value="Beladenes Rack" style="shape=mxgraph.flowchart.data;strokeWidth=2;gradientColor=none;gradientDirection=north;fontStyle=0;html=1;" vertex="1" parent="1">
          <mxGeometry x="267.11" y="362" width="159" height="80" as="geometry" />
        </mxCell>
        <mxCell id="biZYYDh9NMslOkPzkoju-131" value="" style="sketch=0;outlineConnect=0;fontColor=#232F3E;gradientColor=none;fillColor=#DD344C;strokeColor=none;dashed=0;verticalLabelPosition=bottom;verticalAlign=top;align=center;html=1;fontSize=12;fontStyle=0;aspect=fixed;pointerEvents=1;shape=mxgraph.aws4.waf_bot;" vertex="1" parent="1">
          <mxGeometry x="-90" y="160" width="50" height="50" as="geometry" />
        </mxCell>
        <mxCell id="biZYYDh9NMslOkPzkoju-132" value="" style="sketch=0;points=[[0,0,0],[0.25,0,0],[0.5,0,0],[0.75,0,0],[1,0,0],[0,1,0],[0.25,1,0],[0.5,1,0],[0.75,1,0],[1,1,0],[0,0.25,0],[0,0.5,0],[0,0.75,0],[1,0.25,0],[1,0.5,0],[1,0.75,0]];outlineConnect=0;fontColor=#232F3E;fillColor=#DD344C;strokeColor=#ffffff;dashed=0;verticalLabelPosition=bottom;verticalAlign=top;align=center;html=1;fontSize=12;fontStyle=0;aspect=fixed;shape=mxgraph.aws4.resourceIcon;resIcon=mxgraph.aws4.robotics;" vertex="1" parent="1">
          <mxGeometry x="-90" y="340" width="50" height="50" as="geometry" />
        </mxCell>
        <mxCell id="biZYYDh9NMslOkPzkoju-133" style="edgeStyle=orthogonalEdgeStyle;rounded=0;orthogonalLoop=1;jettySize=auto;html=1;exitX=0.905;exitY=0.5;exitDx=0;exitDy=0;exitPerimeter=0;entryX=0.095;entryY=0.5;entryDx=0;entryDy=0;entryPerimeter=0;" edge="1" parent="1" target="biZYYDh9NMslOkPzkoju-128">
          <mxGeometry relative="1" as="geometry">
            <mxPoint x="409.005" y="402" as="sourcePoint" />
          </mxGeometry>
        </mxCell>
        <mxCell id="biZYYDh9NMslOkPzkoju-134" value="" style="html=1;verticalLabelPosition=bottom;align=center;labelBackgroundColor=#ffffff;verticalAlign=top;strokeWidth=2;strokeColor=#0080F0;shadow=0;dashed=0;shape=mxgraph.ios7.icons.forward;" vertex="1" parent="1">
          <mxGeometry x="446.11" y="373.2" width="30" height="16.8" as="geometry" />
        </mxCell>
        <mxCell id="biZYYDh9NMslOkPzkoju-136" value="Tube in&amp;nbsp;&lt;div&gt;elektromagnetischem&lt;/div&gt;&lt;div&gt;RÃ¶hrchenhalter&lt;/div&gt;" style="shape=mxgraph.flowchart.data;strokeWidth=2;gradientColor=none;gradientDirection=north;fontStyle=0;html=1;" vertex="1" parent="1">
          <mxGeometry x="487.11" y="500" width="159" height="80" as="geometry" />
        </mxCell>
        <mxCell id="biZYYDh9NMslOkPzkoju-139" value="offene Tubes auf&lt;div&gt;dem Rack&lt;/div&gt;" style="shape=mxgraph.flowchart.data;strokeWidth=2;gradientColor=none;gradientDirection=north;fontStyle=0;html=1;" vertex="1" parent="1">
          <mxGeometry x="740" y="362" width="159" height="80" as="geometry" />
        </mxCell>
        <mxCell id="biZYYDh9NMslOkPzkoju-141" value="" style="sketch=0;points=[[0,0,0],[0.25,0,0],[0.5,0,0],[0.75,0,0],[1,0,0],[0,1,0],[0.25,1,0],[0.5,1,0],[0.75,1,0],[1,1,0],[0,0.25,0],[0,0.5,0],[0,0.75,0],[1,0.25,0],[1,0.5,0],[1,0.75,0]];outlineConnect=0;fontColor=#232F3E;fillColor=#DD344C;strokeColor=#ffffff;dashed=0;verticalLabelPosition=bottom;verticalAlign=top;align=center;html=1;fontSize=12;fontStyle=0;aspect=fixed;shape=mxgraph.aws4.resourceIcon;resIcon=mxgraph.aws4.robomaker;" vertex="1" parent="1">
          <mxGeometry x="678" y="340" width="50" height="50" as="geometry" />
        </mxCell>
        <mxCell id="biZYYDh9NMslOkPzkoju-142" value="abgeschraubte Deckel" style="shape=mxgraph.flowchart.data;strokeWidth=2;gradientColor=none;gradientDirection=north;fontStyle=0;html=1;" vertex="1" parent="1">
          <mxGeometry x="477.11" y="657" width="159" height="80" as="geometry" />
        </mxCell>
        <mxCell id="biZYYDh9NMslOkPzkoju-144" style="edgeStyle=orthogonalEdgeStyle;rounded=0;orthogonalLoop=1;jettySize=auto;html=1;exitX=0.5;exitY=1;exitDx=0;exitDy=0;exitPerimeter=0;entryX=0.568;entryY=-0.021;entryDx=0;entryDy=0;entryPerimeter=0;" edge="1" parent="1" source="biZYYDh9NMslOkPzkoju-136" target="biZYYDh9NMslOkPzkoju-142">
          <mxGeometry relative="1" as="geometry" />
        </mxCell>
        <mxCell id="biZYYDh9NMslOkPzkoju-145" value="MÃ¼lleimer" style="shape=mxgraph.flowchart.data;strokeWidth=2;gradientColor=none;gradientDirection=north;fontStyle=0;html=1;" vertex="1" parent="1">
          <mxGeometry x="476.11" y="818" width="159" height="80" as="geometry" />
        </mxCell>
        <mxCell id="biZYYDh9NMslOkPzkoju-146" style="edgeStyle=orthogonalEdgeStyle;rounded=0;orthogonalLoop=1;jettySize=auto;html=1;exitX=0.5;exitY=1;exitDx=0;exitDy=0;exitPerimeter=0;entryX=0.5;entryY=0;entryDx=0;entryDy=0;entryPerimeter=0;" edge="1" parent="1" source="biZYYDh9NMslOkPzkoju-142" target="biZYYDh9NMslOkPzkoju-145">
          <mxGeometry relative="1" as="geometry" />
        </mxCell>
        <mxCell id="biZYYDh9NMslOkPzkoju-147" value="" style="sketch=0;points=[[0,0,0],[0.25,0,0],[0.5,0,0],[0.75,0,0],[1,0,0],[0,1,0],[0.25,1,0],[0.5,1,0],[0.75,1,0],[1,1,0],[0,0.25,0],[0,0.5,0],[0,0.75,0],[1,0.25,0],[1,0.5,0],[1,0.75,0]];outlineConnect=0;fontColor=#232F3E;fillColor=#DD344C;strokeColor=#ffffff;dashed=0;verticalLabelPosition=bottom;verticalAlign=top;align=center;html=1;fontSize=12;fontStyle=0;aspect=fixed;shape=mxgraph.aws4.resourceIcon;resIcon=mxgraph.aws4.robomaker;" vertex="1" parent="1">
          <mxGeometry x="577.11" y="588" width="50" height="50" as="geometry" />
        </mxCell>
        <mxCell id="biZYYDh9NMslOkPzkoju-148" value="" style="sketch=0;points=[[0,0,0],[0.25,0,0],[0.5,0,0],[0.75,0,0],[1,0,0],[0,1,0],[0.25,1,0],[0.5,1,0],[0.75,1,0],[1,1,0],[0,0.25,0],[0,0.5,0],[0,0.75,0],[1,0.25,0],[1,0.5,0],[1,0.75,0]];outlineConnect=0;fontColor=#232F3E;fillColor=#DD344C;strokeColor=#ffffff;dashed=0;verticalLabelPosition=bottom;verticalAlign=top;align=center;html=1;fontSize=12;fontStyle=0;aspect=fixed;shape=mxgraph.aws4.resourceIcon;resIcon=mxgraph.aws4.robomaker;" vertex="1" parent="1">
          <mxGeometry x="572.11" y="748" width="50" height="50" as="geometry" />
        </mxCell>
        <mxCell id="biZYYDh9NMslOkPzkoju-163" value="Liquid Handling" style="shape=mxgraph.flowchart.data;strokeWidth=2;gradientColor=none;gradientDirection=north;fontStyle=0;html=1;" vertex="1" parent="1">
          <mxGeometry x="960.0000000000001" y="362" width="159" height="80" as="geometry" />
        </mxCell>
        <mxCell id="biZYYDh9NMslOkPzkoju-164" style="edgeStyle=orthogonalEdgeStyle;rounded=0;orthogonalLoop=1;jettySize=auto;html=1;exitX=0.905;exitY=0.5;exitDx=0;exitDy=0;exitPerimeter=0;entryX=0.095;entryY=0.5;entryDx=0;entryDy=0;entryPerimeter=0;" edge="1" parent="1" source="biZYYDh9NMslOkPzkoju-139" target="biZYYDh9NMslOkPzkoju-163">
          <mxGeometry relative="1" as="geometry" />
        </mxCell>
        <mxCell id="biZYYDh9NMslOkPzkoju-165" value="" style="html=1;verticalLabelPosition=bottom;align=center;labelBackgroundColor=#ffffff;verticalAlign=top;strokeWidth=2;strokeColor=#0080F0;shadow=0;dashed=0;shape=mxgraph.ios7.icons.forward;" vertex="1" parent="1">
          <mxGeometry x="929.0000000000001" y="373.2" width="30" height="16.8" as="geometry" />
        </mxCell>
        <mxCell id="biZYYDh9NMslOkPzkoju-167" value="" style="html=1;verticalLabelPosition=bottom;align=center;labelBackgroundColor=#ffffff;verticalAlign=top;strokeWidth=2;strokeColor=#0080F0;shadow=0;dashed=0;shape=mxgraph.ios7.icons.privacy;" vertex="1" parent="1">
          <mxGeometry x="1020" y="455" width="30" height="40" as="geometry" />
        </mxCell>
        <mxCell id="biZYYDh9NMslOkPzkoju-168" value="" style="group" vertex="1" connectable="0" parent="1">
          <mxGeometry x="1580" y="40" width="271.5" height="485" as="geometry" />
        </mxCell>
        <mxCell id="biZYYDh9NMslOkPzkoju-149" value="" style="html=1;verticalLabelPosition=bottom;align=center;labelBackgroundColor=#ffffff;verticalAlign=top;strokeWidth=2;strokeColor=#0080F0;shadow=0;dashed=0;shape=mxgraph.ios7.icons.privacy;" vertex="1" parent="biZYYDh9NMslOkPzkoju-168">
          <mxGeometry x="11.5" width="30" height="40" as="geometry" />
        </mxCell>
        <mxCell id="biZYYDh9NMslOkPzkoju-151" value="HÃ¤ndisch" style="text;html=1;align=center;verticalAlign=middle;resizable=0;points=[];autosize=1;strokeColor=none;fillColor=none;" vertex="1" parent="biZYYDh9NMslOkPzkoju-168">
          <mxGeometry x="71.5" y="3.5" width="70" height="30" as="geometry" />
        </mxCell>
        <mxCell id="biZYYDh9NMslOkPzkoju-152" value="" style="html=1;dashed=0;aspect=fixed;verticalLabelPosition=bottom;verticalAlign=top;align=center;shape=mxgraph.gmdl.office;strokeColor=none;fillColor=#737373;shadow=0;sketch=0;" vertex="1" parent="biZYYDh9NMslOkPzkoju-168">
          <mxGeometry x="7.5" y="75" width="38" height="38" as="geometry" />
        </mxCell>
        <mxCell id="biZYYDh9NMslOkPzkoju-153" value="Ausschneiden" style="text;html=1;align=center;verticalAlign=middle;resizable=0;points=[];autosize=1;strokeColor=none;fillColor=none;" vertex="1" parent="biZYYDh9NMslOkPzkoju-168">
          <mxGeometry x="71.5" y="78" width="100" height="30" as="geometry" />
        </mxCell>
        <mxCell id="biZYYDh9NMslOkPzkoju-154" value="" style="sketch=0;outlineConnect=0;fontColor=#232F3E;gradientColor=none;fillColor=#DD344C;strokeColor=none;dashed=0;verticalLabelPosition=bottom;verticalAlign=top;align=center;html=1;fontSize=12;fontStyle=0;aspect=fixed;pointerEvents=1;shape=mxgraph.aws4.waf_bot;" vertex="1" parent="biZYYDh9NMslOkPzkoju-168">
          <mxGeometry y="155.3" width="53" height="53" as="geometry" />
        </mxCell>
        <mxCell id="biZYYDh9NMslOkPzkoju-155" value="Dobot Lite 1" style="text;html=1;align=center;verticalAlign=middle;resizable=0;points=[];autosize=1;strokeColor=none;fillColor=none;" vertex="1" parent="biZYYDh9NMslOkPzkoju-168">
          <mxGeometry x="66.5" y="178.4" width="90" height="30" as="geometry" />
        </mxCell>
        <mxCell id="biZYYDh9NMslOkPzkoju-156" value="" style="html=1;verticalLabelPosition=bottom;align=center;labelBackgroundColor=#ffffff;verticalAlign=top;strokeWidth=2;strokeColor=#0080F0;shadow=0;dashed=0;shape=mxgraph.ios7.icons.forward;" vertex="1" parent="biZYYDh9NMslOkPzkoju-168">
          <mxGeometry x="11.5" y="258.19999999999993" width="30" height="16.8" as="geometry" />
        </mxCell>
        <mxCell id="biZYYDh9NMslOkPzkoju-157" value="Fortbewegung auf der Sliding Rail" style="text;html=1;align=center;verticalAlign=middle;resizable=0;points=[];autosize=1;strokeColor=none;fillColor=none;" vertex="1" parent="biZYYDh9NMslOkPzkoju-168">
          <mxGeometry x="71.5" y="254.99999999999994" width="200" height="30" as="geometry" />
        </mxCell>
        <mxCell id="biZYYDh9NMslOkPzkoju-159" value="" style="sketch=0;points=[[0,0,0],[0.25,0,0],[0.5,0,0],[0.75,0,0],[1,0,0],[0,1,0],[0.25,1,0],[0.5,1,0],[0.75,1,0],[1,1,0],[0,0.25,0],[0,0.5,0],[0,0.75,0],[1,0.25,0],[1,0.5,0],[1,0.75,0]];outlineConnect=0;fontColor=#232F3E;fillColor=#DD344C;strokeColor=#ffffff;dashed=0;verticalLabelPosition=bottom;verticalAlign=top;align=center;html=1;fontSize=12;fontStyle=0;aspect=fixed;shape=mxgraph.aws4.resourceIcon;resIcon=mxgraph.aws4.robotics;" vertex="1" parent="biZYYDh9NMslOkPzkoju-168">
          <mxGeometry x="1.5" y="331.6" width="50" height="50" as="geometry" />
        </mxCell>
        <mxCell id="biZYYDh9NMslOkPzkoju-160" value="Elephant Robotics MyCobot 2" style="text;html=1;align=center;verticalAlign=middle;resizable=0;points=[];autosize=1;strokeColor=none;fillColor=none;" vertex="1" parent="biZYYDh9NMslOkPzkoju-168">
          <mxGeometry x="66.5" y="341.6" width="180" height="30" as="geometry" />
        </mxCell>
        <mxCell id="biZYYDh9NMslOkPzkoju-161" value="" style="sketch=0;points=[[0,0,0],[0.25,0,0],[0.5,0,0],[0.75,0,0],[1,0,0],[0,1,0],[0.25,1,0],[0.5,1,0],[0.75,1,0],[1,1,0],[0,0.25,0],[0,0.5,0],[0,0.75,0],[1,0.25,0],[1,0.5,0],[1,0.75,0]];outlineConnect=0;fontColor=#232F3E;fillColor=#DD344C;strokeColor=#ffffff;dashed=0;verticalLabelPosition=bottom;verticalAlign=top;align=center;html=1;fontSize=12;fontStyle=0;aspect=fixed;shape=mxgraph.aws4.resourceIcon;resIcon=mxgraph.aws4.robomaker;" vertex="1" parent="biZYYDh9NMslOkPzkoju-168">
          <mxGeometry x="1.5" y="435" width="50" height="50" as="geometry" />
        </mxCell>
        <mxCell id="biZYYDh9NMslOkPzkoju-162" value="DoBot 3 (Sliding Rail)" style="text;html=1;align=center;verticalAlign=middle;resizable=0;points=[];autosize=1;strokeColor=none;fillColor=none;" vertex="1" parent="biZYYDh9NMslOkPzkoju-168">
          <mxGeometry x="71.5" y="445" width="140" height="30" as="geometry" />
        </mxCell>
        <mxCell id="biZYYDh9NMslOkPzkoju-171" value="Saugschwein" style="shape=mxgraph.flowchart.data;strokeWidth=2;gradientColor=none;gradientDirection=north;fontStyle=0;html=1;" vertex="1" parent="1">
          <mxGeometry x="1180" y="362" width="159" height="80" as="geometry" />
        </mxCell>
        <mxCell id="biZYYDh9NMslOkPzkoju-172" style="edgeStyle=orthogonalEdgeStyle;rounded=0;orthogonalLoop=1;jettySize=auto;html=1;exitX=0.905;exitY=0.5;exitDx=0;exitDy=0;exitPerimeter=0;entryX=0.095;entryY=0.5;entryDx=0;entryDy=0;entryPerimeter=0;" edge="1" parent="1" source="biZYYDh9NMslOkPzkoju-163" target="biZYYDh9NMslOkPzkoju-171">
          <mxGeometry relative="1" as="geometry" />
        </mxCell>
        <mxCell id="biZYYDh9NMslOkPzkoju-173" value="" style="html=1;verticalLabelPosition=bottom;align=center;labelBackgroundColor=#ffffff;verticalAlign=top;strokeWidth=2;strokeColor=#0080F0;shadow=0;dashed=0;shape=mxgraph.ios7.icons.forward;" vertex="1" parent="1">
          <mxGeometry x="1150" y="373.2" width="30" height="16.8" as="geometry" />
        </mxCell>
        <mxCell id="biZYYDh9NMslOkPzkoju-174" value="Entladen der&amp;nbsp;&lt;div&gt;Zentrifuge&lt;/div&gt;&lt;div&gt;(1 Tube)&lt;/div&gt;" style="shape=mxgraph.flowchart.data;strokeWidth=2;gradientColor=none;gradientDirection=north;fontStyle=0;html=1;" vertex="1" parent="1">
          <mxGeometry x="29" y="362" width="159" height="80" as="geometry" />
        </mxCell>
        <mxCell id="biZYYDh9NMslOkPzkoju-175" style="edgeStyle=orthogonalEdgeStyle;rounded=0;orthogonalLoop=1;jettySize=auto;html=1;exitX=0.905;exitY=0.5;exitDx=0;exitDy=0;exitPerimeter=0;entryX=0.095;entryY=0.5;entryDx=0;entryDy=0;entryPerimeter=0;" edge="1" parent="1" source="biZYYDh9NMslOkPzkoju-174" target="biZYYDh9NMslOkPzkoju-129">
          <mxGeometry relative="1" as="geometry" />
        </mxCell>
        <mxCell id="biZYYDh9NMslOkPzkoju-176" value="" style="sketch=0;points=[[0,0,0],[0.25,0,0],[0.5,0,0],[0.75,0,0],[1,0,0],[0,1,0],[0.25,1,0],[0.5,1,0],[0.75,1,0],[1,1,0],[0,0.25,0],[0,0.5,0],[0,0.75,0],[1,0.25,0],[1,0.5,0],[1,0.75,0]];outlineConnect=0;fontColor=#232F3E;fillColor=#DD344C;strokeColor=#ffffff;dashed=0;verticalLabelPosition=bottom;verticalAlign=top;align=center;html=1;fontSize=12;fontStyle=0;aspect=fixed;shape=mxgraph.aws4.resourceIcon;resIcon=mxgraph.aws4.robotics;" vertex="1" parent="1">
          <mxGeometry x="210" y="340" width="50" height="50" as="geometry" />
        </mxCell>
        <mxCell id="biZYYDh9NMslOkPzkoju-177" style="edgeStyle=orthogonalEdgeStyle;rounded=0;orthogonalLoop=1;jettySize=auto;html=1;exitX=0.5;exitY=1;exitDx=0;exitDy=0;exitPerimeter=0;entryX=0.5;entryY=0;entryDx=0;entryDy=0;entryPerimeter=0;" edge="1" parent="1" source="biZYYDh9NMslOkPzkoju-128" target="biZYYDh9NMslOkPzkoju-136">
          <mxGeometry relative="1" as="geometry" />
        </mxCell>
        <mxCell id="biZYYDh9NMslOkPzkoju-178" style="edgeStyle=orthogonalEdgeStyle;rounded=0;orthogonalLoop=1;jettySize=auto;html=1;exitX=0.905;exitY=0.5;exitDx=0;exitDy=0;exitPerimeter=0;entryX=0.095;entryY=0.5;entryDx=0;entryDy=0;entryPerimeter=0;" edge="1" parent="1" source="biZYYDh9NMslOkPzkoju-128" target="biZYYDh9NMslOkPzkoju-139">
          <mxGeometry relative="1" as="geometry" />
        </mxCell>
        <mxCell id="biZYYDh9NMslOkPzkoju-179" value="" style="html=1;verticalLabelPosition=bottom;align=center;labelBackgroundColor=#ffffff;verticalAlign=top;strokeWidth=2;strokeColor=#0080F0;shadow=0;dashed=0;shape=mxgraph.ios7.icons.privacy;" vertex="1" parent="1">
          <mxGeometry x="1244.5" y="450" width="30" height="40" as="geometry" />
        </mxCell>
      </root>
    </mxGraphModel>
  </diagram>
</mxfile>
